<?xml version="1.0" standalone="no"?>
<!DOCTYPE svg PUBLIC "-//W3C//DTD SVG 20010904//EN"
 "http://www.w3.org/TR/2001/REC-SVG-20010904/DTD/svg10.dtd">
<svg version="1.0" xmlns="http://www.w3.org/2000/svg"
 width="232.000000pt" height="53.000000pt" viewBox="0 0 232.000000 53.000000"
 preserveAspectRatio="xMidYMid meet">

<g transform="translate(0.000000,53.000000) scale(0.100000,-0.100000)"
fill="#000000" stroke="none">
<path d="M1808 501 l-32 -29 23 -51 c47 -98 108 -129 158 -78 33 32 26 73 -22
140 -43 58 -77 63 -127 18z m52 -25 c0 -3 -4 -8 -10 -11 -5 -3 -10 -1 -10 4 0
6 5 11 10 11 6 0 10 -2 10 -4z m45 -55 c7 -12 -12 -24 -25 -16 -11 7 -4 25 10
25 5 0 11 -4 15 -9z"/>
<path d="M1667 405 c-20 -14 -37 -29 -37 -33 0 -4 18 -36 39 -72 35 -58 37
-65 21 -68 -12 -2 -27 -25 -44 -65 -24 -60 -25 -61 -26 -26 0 23 -6 39 -15 43
-8 3 -15 15 -15 26 0 16 -7 20 -30 20 -23 0 -33 -7 -45 -30 -20 -38 -32 -38
-53 0 -14 25 -23 30 -47 28 l-30 -3 -3 -100 c-2 -85 0 -102 15 -112 24 -18 83
-17 83 2 0 8 9 19 21 25 17 10 21 8 26 -9 7 -27 28 -29 236 -30 168 0 177 1
177 20 0 10 5 19 10 19 6 0 10 -6 10 -14 0 -20 28 -24 169 -25 121 -1 124 -1
108 17 -21 23 -23 99 -2 122 12 13 13 23 4 51 -7 19 -16 41 -21 49 -5 8 -11
23 -14 33 -11 31 -114 19 -114 -14 0 -13 8 -19 23 -20 13 -1 8 -4 -13 -8 -30
-5 -35 -10 -38 -38 -3 -30 -4 -31 -23 -15 -10 9 -19 24 -19 34 0 13 -8 18 -30
18 -28 0 -30 -3 -30 -37 l0 -37 -39 38 c-57 56 -75 48 -79 -34 l-3 -65 -19 40
c-11 22 -25 48 -32 58 -11 16 -9 22 20 45 48 40 43 74 -21 155 -37 45 -66 48
-120 12z m48 -35 c-3 -5 -11 -10 -16 -10 -6 0 -7 5 -4 10 3 6 11 10 16 10 6 0
7 -4 4 -10z m43 -52 c-6 -18 -28 -21 -28 -4 0 9 7 16 16 16 9 0 14 -5 12 -12z"/>
</g>
</svg>
